<svg width="119" height="34" viewBox="0 0 119 34" fill="none" xmlns="http://www.w3.org/2000/svg">
<path d="M40.04 23H44.42V26H36.12V11.9H40.04V23ZM45.3042 20.38C45.3042 19.22 45.5109 18.2067 45.9242 17.34C46.3509 16.4733 46.9242 15.8067 47.6442 15.34C48.3776 14.8733 49.1909 14.64 50.0842 14.64C50.8576 14.64 51.5242 14.7933 52.0842 15.1C52.6442 15.4067 53.0776 15.82 53.3842 16.34V14.78H57.3042V26H53.3842V24.44C53.0776 24.96 52.6376 25.3733 52.0642 25.68C51.5042 25.9867 50.8442 26.14 50.0842 26.14C49.1909 26.14 48.3776 25.9067 47.6442 25.44C46.9242 24.9733 46.3509 24.3067 45.9242 23.44C45.5109 22.56 45.3042 21.54 45.3042 20.38ZM53.3842 20.38C53.3842 19.66 53.1842 19.0933 52.7842 18.68C52.3976 18.2667 51.9176 18.06 51.3442 18.06C50.7576 18.06 50.2709 18.2667 49.8842 18.68C49.4976 19.08 49.3042 19.6467 49.3042 20.38C49.3042 21.1 49.4976 21.6733 49.8842 22.1C50.2709 22.5133 50.7576 22.72 51.3442 22.72C51.9176 22.72 52.3976 22.5133 52.7842 22.1C53.1842 21.6867 53.3842 21.1133 53.3842 20.38ZM72.3661 18.76C73.1928 18.9467 73.8461 19.36 74.3261 20C74.8194 20.6267 75.0661 21.3467 75.0661 22.16C75.0661 23.36 74.6528 24.3 73.8261 24.98C72.9994 25.66 71.8394 26 70.3461 26H63.3661V11.9H70.1261C71.5661 11.9 72.6928 12.22 73.5061 12.86C74.3328 13.5 74.7461 14.4 74.7461 15.56C74.7461 16.3867 74.5261 17.08 74.0861 17.64C73.6594 18.1867 73.0861 18.56 72.3661 18.76ZM67.2861 17.5H69.2661C70.2528 17.5 70.7461 17.0933 70.7461 16.28C70.7461 15.44 70.2528 15.02 69.2661 15.02H67.2861V17.5ZM69.5661 22.84C70.5528 22.84 71.0461 22.4267 71.0461 21.6C71.0461 21.1733 70.9128 20.8467 70.6461 20.62C70.3928 20.3933 70.0261 20.28 69.5461 20.28H67.2861V22.84H69.5661ZM82.0041 26.14C80.8841 26.14 79.8774 25.9067 78.9841 25.44C78.1041 24.9733 77.4107 24.3067 76.9041 23.44C76.3974 22.5733 76.1441 21.5533 76.1441 20.38C76.1441 19.22 76.3974 18.2067 76.9041 17.34C77.4241 16.4733 78.1241 15.8067 79.0041 15.34C79.8974 14.8733 80.9041 14.64 82.0241 14.64C83.1441 14.64 84.1441 14.8733 85.0241 15.34C85.9174 15.8067 86.6174 16.4733 87.1241 17.34C87.6441 18.2067 87.9041 19.22 87.9041 20.38C87.9041 21.54 87.6441 22.56 87.1241 23.44C86.6174 24.3067 85.9174 24.9733 85.0241 25.44C84.1307 25.9067 83.1241 26.14 82.0041 26.14ZM82.0041 22.74C82.5507 22.74 83.0041 22.54 83.3641 22.14C83.7374 21.7267 83.9241 21.14 83.9241 20.38C83.9241 19.62 83.7374 19.04 83.3641 18.64C83.0041 18.24 82.5574 18.04 82.0241 18.04C81.4907 18.04 81.0441 18.24 80.6841 18.64C80.3241 19.04 80.1441 19.62 80.1441 20.38C80.1441 21.1533 80.3174 21.74 80.6641 22.14C81.0107 22.54 81.4574 22.74 82.0041 22.74ZM93.4189 11.2V26H89.4989V11.2H93.4189ZM100.431 26.14C99.4179 26.14 98.5113 25.9733 97.7113 25.64C96.9246 25.2933 96.2979 24.8267 95.8313 24.24C95.3779 23.64 95.1246 22.9667 95.0713 22.22H98.8713C98.9246 22.58 99.0913 22.86 99.3713 23.06C99.6513 23.26 99.9979 23.36 100.411 23.36C100.731 23.36 100.985 23.2933 101.171 23.16C101.358 23.0267 101.451 22.8533 101.451 22.64C101.451 22.36 101.298 22.1533 100.991 22.02C100.685 21.8867 100.178 21.74 99.4713 21.58C98.6713 21.42 98.0046 21.24 97.4712 21.04C96.9379 20.84 96.4713 20.5133 96.0713 20.06C95.6846 19.6067 95.4913 18.9933 95.4913 18.22C95.4913 17.5533 95.6713 16.9533 96.0313 16.42C96.3913 15.8733 96.9179 15.44 97.6113 15.12C98.3179 14.8 99.1646 14.64 100.151 14.64C101.618 14.64 102.771 15 103.611 15.72C104.451 16.44 104.938 17.3867 105.071 18.56H101.531C101.465 18.2 101.305 17.9267 101.051 17.74C100.811 17.54 100.485 17.44 100.071 17.44C99.7513 17.44 99.5046 17.5 99.3313 17.62C99.1713 17.74 99.0913 17.9067 99.0913 18.12C99.0913 18.3867 99.2446 18.5933 99.5513 18.74C99.8579 18.8733 100.351 19.0133 101.031 19.16C101.845 19.3333 102.518 19.5267 103.051 19.74C103.598 19.9533 104.071 20.3 104.471 20.78C104.885 21.2467 105.091 21.8867 105.091 22.7C105.091 23.3533 104.898 23.94 104.511 24.46C104.138 24.98 103.598 25.3933 102.891 25.7C102.198 25.9933 101.378 26.14 100.431 26.14ZM106.378 20.38C106.378 19.22 106.585 18.2067 106.998 17.34C107.425 16.4733 107.998 15.8067 108.718 15.34C109.452 14.8733 110.265 14.64 111.158 14.64C111.932 14.64 112.598 14.7933 113.158 15.1C113.718 15.4067 114.152 15.82 114.458 16.34V14.78H118.378V26H114.458V24.44C114.152 24.96 113.712 25.3733 113.138 25.68C112.578 25.9867 111.918 26.14 111.158 26.14C110.265 26.14 109.452 25.9067 108.718 25.44C107.998 24.9733 107.425 24.3067 106.998 23.44C106.585 22.56 106.378 21.54 106.378 20.38ZM114.458 20.38C114.458 19.66 114.258 19.0933 113.858 18.68C113.472 18.2667 112.992 18.06 112.418 18.06C111.832 18.06 111.345 18.2667 110.958 18.68C110.572 19.08 110.378 19.6467 110.378 20.38C110.378 21.1 110.572 21.6733 110.958 22.1C111.345 22.5133 111.832 22.72 112.418 22.72C112.992 22.72 113.472 22.5133 113.858 22.1C114.258 21.6867 114.458 21.1133 114.458 20.38Z" fill="white"/>
<path d="M24.4429 9C25.5642 9.44346 26.1853 11.1706 26.718 12.3641C26.8611 12.7294 26.9992 13.0974 27.1327 13.4677C27.2034 13.6581 27.2742 13.8484 27.3471 14.0445C28.4704 17.5954 28.053 21.7245 26.7901 25.1307C25.2408 29.1043 22.4332 31.6487 19.0632 33.2535C15.7155 34.5883 12.3249 34.0533 9.18917 32.2828C7.13542 31.049 5.04349 29.1544 4 26.6582C4.03988 26.2259 4.03988 26.2259 4.17932 25.8072C4.62351 25.4997 5.04619 25.2443 5.51304 24.9961C6.59312 24.3938 7.5609 23.7417 8.51531 22.8819C8.84173 22.616 8.84173 22.616 9.20038 22.616C9.25955 24.7222 9.31873 26.8284 9.3797 28.9985C12.5571 30.8833 15.1015 31.4318 18.5252 30.275C18.7805 30.1346 19.0333 29.9879 19.2837 29.8356C19.4109 29.7586 19.5381 29.6816 19.6691 29.6023C19.765 29.5435 19.861 29.4846 19.9598 29.424C19.9538 29.2093 19.9538 29.2093 19.9477 28.9903C19.9078 27.4889 19.8809 25.9877 19.8613 24.4857C19.8523 23.9267 19.8401 23.3677 19.8245 22.8088C19.6778 17.4162 19.6778 17.4162 20.8235 15.8146C21.1281 15.4516 21.4376 15.0941 21.753 14.7442C21.9748 14.3748 22.1897 13.999 22.3918 13.614C22.5333 13.3492 22.6774 13.0863 22.8289 12.8295C22.8881 12.8295 22.9473 12.8295 23.0083 12.8295C23.0674 17.3228 23.1266 21.816 23.1876 26.4455C24.1224 24.813 24.1224 24.813 24.7679 23.108C24.8393 22.8834 24.9107 22.6587 24.9843 22.4273C25.6914 19.7638 25.6542 16.4126 24.6222 13.8932C24.348 13.3228 24.0655 12.7691 23.7564 12.2245C23.5462 11.7657 23.5462 11.7657 23.5462 10.9147C23.7424 10.4128 23.7424 10.4128 23.9945 9.90419C24.0778 9.73415 24.161 9.56412 24.2467 9.38893C24.3114 9.26059 24.3762 9.13224 24.4429 9Z" fill="#1FBAEE"/>
<path d="M24.9544 0C25.1041 0.886748 25.253 1.77371 25.4011 2.66088C25.4516 2.9625 25.5023 3.26407 25.5533 3.56557C25.6266 3.99955 25.699 4.43373 25.7713 4.86796C25.837 5.25952 25.837 5.25952 25.904 5.659C26 6.3366 26 6.3366 26 7.18148C25.8418 7.11613 25.6837 7.05078 25.5207 6.98346C25.0992 6.81642 24.6874 6.67361 24.2573 6.54782C24.1663 6.76782 24.0753 6.98781 23.9816 7.21448C23.0442 9.44236 21.9942 11.5041 20.7718 13.5181C20.696 13.6435 20.6201 13.7689 20.5419 13.8981C18.8375 16.6858 16.8849 19.3351 14.6723 21.5444C14.1438 21.2562 13.7653 20.9263 13.3476 20.4413C13.1764 20.2446 13.1764 20.2446 13.0017 20.044C12.8258 19.8392 12.8258 19.8392 12.6464 19.6302C12.4121 19.3589 12.1775 19.088 11.9425 18.8175C11.8392 18.6975 11.736 18.5774 11.6296 18.4536C11.366 18.1451 11.366 18.1451 11.0126 17.9537C10.9739 18.0708 10.9353 18.1878 10.8955 18.3085C9.60327 21.0447 6.33838 23.2736 4.04168 24.5015C3.89611 24.5805 3.75054 24.6594 3.60055 24.7408C2.87793 25.0484 2.18261 25.044 1.42759 24.9239C0.862657 24.5816 0.521837 24.3025 0.142336 23.6962C-0.131015 22.5367 -0.00452003 21.747 0.469096 20.7128C0.611837 20.4249 0.75625 20.1382 0.904777 19.8547C1.0198 19.9244 1.13482 19.9941 1.25332 20.0659C1.19581 20.1792 1.1383 20.2924 1.07905 20.4091C0.860437 21.0384 0.857214 21.5007 0.904777 22.1781C1.0198 22.3872 1.13482 22.5963 1.25332 22.8117C2.79286 23.0826 3.96933 22.3765 5.20534 21.2867C7.32734 19.2966 9.10944 16.8345 10.8383 14.363C11.7003 14.6733 12.1741 15.2732 12.7771 16.0395C12.9142 16.21 12.9142 16.21 13.0541 16.384C13.304 16.6949 13.5525 17.0074 13.8009 17.32C13.9747 17.5319 14.1486 17.7436 14.3237 17.9537C15.3589 17.4457 15.9274 16.247 16.5893 15.2078C16.6656 15.0897 16.7419 14.9716 16.8206 14.85C18.7948 11.7799 20.2495 8.45009 21.4689 4.85806C20.9513 4.64895 20.4337 4.43984 19.9005 4.2244C20.1262 3.40372 20.3928 3.28525 20.9897 2.82507C21.1772 2.67858 21.3648 2.5321 21.5581 2.38117C21.6572 2.30378 21.7564 2.22639 21.8586 2.14665C22.1739 1.89464 22.4825 1.63346 22.7903 1.36798C22.8916 1.28075 22.993 1.19352 23.0974 1.10364C23.3848 0.855234 23.6716 0.605854 23.9584 0.356434C24.4315 0 24.4315 0 24.9544 0Z" fill="#33FF00"/>
<path d="M20 5.55701C19.8692 6.48399 19.6368 7.232 19.331 8.0867C19.2436 8.04594 19.1563 8.00518 19.0664 7.96318C16.0467 6.6168 13.3571 6.72672 10.4545 8.37903C7.94904 9.98433 6.49892 12.5611 5.61578 15.8866C5.46585 16.7352 5.4493 17.5202 5.45934 18.3875C5.45776 20.2639 5.45776 20.2639 4.91016 21.072C3.85783 22 3.85783 22 3.27416 22C2.5756 18.0121 3.24014 14.2432 4.94674 10.8272C6.83484 7.43534 9.58339 5.04355 12.8105 4.21147C15.3405 3.6613 17.7005 4.21065 20 5.55701Z" fill="#2DFF34"/>
<path d="M10 9.10419C10.7401 9.08304 11.4796 9.0648 12.2198 9.05378C12.4712 9.04918 12.7225 9.04293 12.9739 9.03496C13.3366 9.02374 13.6992 9.0186 14.062 9.01456C14.3887 9.00736 14.3887 9.00736 14.7221 9C15.5845 9.14716 16.1076 9.67067 16.7325 10.4235C17.0334 11.2002 17.0494 11.9364 16.9325 12.7754C16.5992 13.5068 16.5992 13.5068 16.2215 14.1521C16.0983 14.532 15.9789 14.9141 15.866 15.2993C15.7486 15.5265 15.6313 15.7537 15.5104 15.9877C14.6189 16.0215 13.8512 16.034 13.1087 15.3424C12.1331 14.0763 12.1331 14.0763 12.1331 13.6932C12.2809 13.682 12.4287 13.6707 12.5809 13.6591C12.7741 13.642 12.9673 13.6248 13.1663 13.6072C13.454 13.5832 13.454 13.5832 13.7475 13.5588C14.2993 13.5069 14.2993 13.5069 14.7994 13.0048C14.8587 12.4216 14.8587 12.4216 14.7994 11.8576C14.4544 11.4123 13.8266 11.5365 13.3663 11.4991C13.1369 11.4799 12.9075 11.4606 12.6712 11.4408C12.4936 11.4269 12.316 11.413 12.1331 11.3987C12.1331 12.0802 12.1331 12.7616 12.1331 13.4637C11.7748 13.3481 11.4158 13.2315 11.0665 13.0765C10.6338 12.9438 10.6338 12.9438 10 13.4637C10 12.0251 10 10.5864 10 9.10419Z" fill="#FFCE5F"/>
<path d="M11 20C11.6484 20.4567 12.0409 20.9225 12.5663 21.6154C13.018 22.2095 13.4339 22.7476 13.9483 23.2308C14.0041 23.8128 14.0041 23.8128 13.9963 24.5379C13.9947 24.7967 13.9932 25.0555 13.9915 25.3221C13.9874 25.5934 13.9833 25.8647 13.9791 26.1442C13.9757 26.5539 13.9757 26.5539 13.9723 26.9718C13.9665 27.6479 13.9577 28.324 13.9483 29C12.9754 29 12.0024 29 11 29C11 26.03 11 23.06 11 20Z" fill="#EBC418"/>
<path d="M18.7738 20C18.8484 20 18.9231 20 19 20C19 22.97 19 25.94 19 29C17.7308 29 16.4616 29 15.1539 29C15.1111 28.0803 15.0797 27.1625 15.055 26.2424C15.0417 25.983 15.0284 25.7237 15.0148 25.4565C14.9765 23.5644 14.9765 23.5644 15.4787 22.7954C15.8769 22.4061 16.2819 22.0796 16.7376 21.7561C16.9167 21.5982 17.0957 21.4403 17.2802 21.2776C17.4278 21.1548 17.5754 21.032 17.7274 20.9055C18.2625 20.4652 18.2625 20.4652 18.7738 20Z" fill="#F5D72E"/>
<path d="M11.6776 18C12.4099 18.189 12.5797 18.4979 13 19.1534C12.8437 19.2093 12.6874 19.2652 12.5263 19.3228C12.2383 19.1171 12.2383 19.1171 11.9441 18.8254C11.7966 18.6817 11.7966 18.6817 11.6462 18.5351C11.5719 18.4598 11.4976 18.3845 11.4211 18.3069C11.3808 18.4073 11.3405 18.5077 11.2989 18.6111C11.0866 19.0201 10.8697 19.2401 10.5329 19.5344C10.4332 19.6226 10.3334 19.7107 10.2307 19.8016C10.1546 19.8671 10.0784 19.9325 10 20C10 19.258 10.03 19.1881 10.4836 18.6878C10.9126 18.2575 11.0855 18.1423 11.6776 18Z" fill="#7BB49A"/>
<path d="M16.6923 18C16.7938 18.0707 16.8954 18.1414 17 18.2143C16.7636 19.003 16.4182 19.4974 15.9808 20.0893C15.7922 20.3462 15.7922 20.3462 15.5998 20.6083C15.5034 20.7375 15.407 20.8668 15.3077 21C15.2062 20.7879 15.1046 20.5757 15 20.3571C15.0952 20.3041 15.1904 20.2511 15.2885 20.1964C15.6835 19.8728 15.7259 19.6369 15.9231 19.0714C16.1735 18.7061 16.4291 18.3474 16.6923 18Z" fill="#70AE9B"/>
<path d="M0.666667 20C0.776667 20.06 0.886667 20.12 1 20.1818C0.929571 20.4515 0.856073 20.7203 0.78125 20.9886C0.740645 21.1384 0.700039 21.2882 0.658203 21.4425C0.605996 21.5665 0.553789 21.6904 0.5 21.8182C0.335 21.8782 0.17 21.9382 0 22C0.0850597 21.202 0.25369 20.666 0.666667 20Z" fill="#78A98B"/>
<path d="M3 20C3.165 20.2933 3.33 20.5867 3.5 20.8889C3.7475 21.2189 3.7475 21.2189 4 21.5556C3.505 21.7756 3.505 21.7756 3 22C3 21.34 3 20.68 3 20Z" fill="#85BF9B"/>
</svg>
